<svg xmlns="http://www.w3.org/2000/svg" version="1.1" xmlns:xlink="http://www.w3.org/1999/xlink" width="1500" height="1500" viewBox="0 0 1500 1500"><rect width="1500" height="1500" x="0" y="0" id="background" stroke="transparent" fill="#ffffff"></rect><svg xml:space="preserve" width="1000" height="1000" data-version="2" data-id="lg_vU6B8Hz1YjNvXzGcnG" viewBox="0 0 571 120" x="250" y="250"><rect width="100%" height="100%" fill="transparent"></rect><path fill="#9edc29" d="M285.503.885h254.54c14.058 0 25.454 12.603 25.454 28.15v61.93c0 15.547-11.396 28.15-25.454 28.15h-254.54z"></path><path fill="#275559" d="M285.497 119.115H30.957c-14.058 0-25.454-12.603-25.454-28.15v-61.93c0-15.547 11.396-28.15 25.454-28.15h254.54z"></path><path fill="#fff" d="M176.92 87.08q-6.77 0-6.77-1.52l-1.59-30.48-9.28 30.86q-.3.91-5.16.91-4.87 0-5.02-.84l-9.58-31.23-1.06 30.32q-.08 1.14-2.89 1.56-2.81.42-4.67.42-1.86 0-3.61-.23-3.65-.53-3.57-1.9l1.74-49.4q0-1.83 9.28-1.83 2.73 0 6.68.42 3.96.42 4.41 1.64l8.51 23.94 7.45-24.02q.69-1.98 10.49-1.98 2.81 0 6.73.42 3.91.42 3.91 1.48l2.2 49.86q0 .84-2.96 1.22t-5.24.38" paint-order="stroke"></path><rect width="61.42" height="53.36" x="-30.71" y="-26.68" fill="none" rx="0" ry="0" transform="translate(154.91 60.9)"></rect><path fill="#fff" d="M221 84.95q-4.79 2.81-12.32 2.81-7.52 0-12.69-5.13t-5.17-14.21q0-9.08 4.98-14.63 4.98-5.55 12.58-5.55t11.74 3.88q4.14 3.87 4.14 9.42 0 12.31-14.13 12.31h-5.25q0 2.28 1.26 3.16 1.25.87 3.68.87 5.32 0 10.11-2.43.08-.08.69 1.06 1.82 3.27 1.82 5.51 0 2.24-1.44 2.93m-9.5-21.97q0-3.19-3.12-3.19-1.44 0-2.47.88-1.03.87-1.03 2.54v2.36h4.11q2.51 0 2.51-2.59" paint-order="stroke"></path><rect width="33.44" height="39.52" x="-16.72" y="-19.76" fill="none" rx="0" ry="0" transform="translate(208.04 68.5)"></rect><path fill="#fff" d="M248.43 34.26q0-1.14 6.01-1.14 2.05 0 4.75.26 2.69.27 2.69.72v40.06h2.66q1.9 0 2.51 3.42.15.98.15 2.69t-1.06 4.15q-1.52 3.34-4.86 3.34-2.51 0-4.45-.99-1.94-.99-2.62-2.05l-.69-.99q-4.18 4.03-10.48 4.03-6.31 0-10.8-5.24-4.48-5.25-4.48-14.63 0-9.39 4.71-14.52 4.71-5.13 11.78-5.13 2.05 0 4.18.46Zm-2.51 26.14q-4.25 0-4.25 7.68 0 3.87 1.21 5.58 1.22 1.71 2.7 1.71 1.48 0 2.85-1.29V61.16q-1.29-.76-2.51-.76" paint-order="stroke"></path><rect width="39.44" height="54.64" x="-19.72" y="-27.32" fill="none" rx="0" ry="0" transform="translate(247.98 60.94)"></rect><path fill="#fff" d="M286.05 86.54q0 .61-6.95.61-6.96 0-6.96-.53V49.3q0-.53 6.96-.53 6.95 0 6.95.46Zm0-41.8q0 .54-6.95.54-6.96 0-6.96-.46V33.88q0-.76 6.96-.76 6.95 0 6.95.45Z" paint-order="stroke"></path><rect width="13.91" height="54.03" x="-6.96" y="-27.02" fill="none" rx="0" ry="0" transform="translate(279.6 60.63)"></rect><path fill="#fff" d="M289.93 49.23q-.23-.61 7.1-.61 7.34 0 7.34.38l5.47 25.84 4.1-25.46q.23-.68 7.53-.68 7.37 0 7.14.6L317.9 86.47q-.54.76-9.05.76-8.51 0-9.12-1.14Z" paint-order="stroke"></path><rect width="38.81" height="38.61" x="-19.4" y="-19.3" fill="none" rx="0" ry="0" transform="translate(309.77 68.42)"></rect><path fill="#fff" d="M346.4 86.54q0 .61-6.96.61-6.95 0-6.95-.53V49.3q0-.53 6.95-.53 6.96 0 6.96.46Zm0-41.8q0 .54-6.96.54-6.95 0-6.95-.46V33.88q0-.76 6.95-.76 6.96 0 6.96.45Z" paint-order="stroke"></path><rect width="13.91" height="54.03" x="-6.96" y="-27.02" fill="none" rx="0" ry="0" transform="translate(339.94 60.63)"></rect><path fill="#fff" d="M354.83 73.32q6.16 3.72 9.73 3.72 2.28 0 2.28-1.59 0-1.14-3.95-2.97-9.5-3.87-9.5-12.69 0-5.62 4.1-8.59 4.11-2.96 9.84-2.96 5.74 0 9.73 1.22 3.99 1.21 3.99 3.19 0 1.67-1.63 4.41-1.64 2.73-2.24 2.96-3.27-1.82-7.07-1.82-2.05 0-2.05 1.44 0 .91.79 1.56.8.64 2.93 1.59 2.13.95 3.53 1.71 1.41.76 3.16 2.13 3.65 2.89 3.65 7.53 0 6.08-4.03 9.84t-12.16 3.76q-5.4 0-9.81-1.82-4.4-1.83-4.4-5.02 0-2.13 1.02-4.48 1.03-2.36 2.09-3.12" paint-order="stroke"></path><rect width="30.4" height="39.52" x="-15.2" y="-19.76" fill="none" rx="0" ry="0" transform="translate(367.42 68.5)"></rect><path fill="#fff" d="M404.92 86.54q0 .92-6.39.92-7.6-.31-7.6-.99V59.56h-3.87q-1.52 0-1.52-5.24 0-1.37.26-3.34.27-1.98 1.1-1.98h4.03v-6.69q0-1.52 6.42-1.52 6.43 0 6.43 1.22v4.86l.07 2.13h6.46q1.29 0 1.29 5.32t-1.29 5.32h-5.39Z" paint-order="stroke"></path><rect width="26.06" height="46.67" x="-13.03" y="-23.34" fill="none" rx="0" ry="0" transform="translate(399.07 64.63)"></rect><path fill="#fff" d="M420.19 59.41q-2.13-3.8-2.13-6.19 0-2.4 1.3-3.08 4.33-1.9 11.89-1.9 7.56 0 10.68 3.53 3.11 3.54 3.11 10.45v12.01h2.59q1.29 0 2.01 1.52.72 1.52.72 4.18 0 2.66-1.33 5.25-1.33 2.58-3.61 2.58-4.1 0-6.61-2.2-1.14-.92-1.75-2.21-3.49 4.41-10.86 4.41-5.55 0-9.35-3.95t-3.8-9.35q0-12.39 14.82-12.39h4.18v-.76q0-1.97-.65-2.54-.64-.57-3-.57-2.89 0-8.21 1.21m6.08 13.99q0 1.67.91 2.54.92.88 2.32.88 1.41 0 2.55-1.14v-5.86h-2.13q-3.65 0-3.65 3.58" paint-order="stroke"></path><rect width="37.31" height="39.52" x="-18.66" y="-19.76" fill="none" rx="0" ry="0" transform="translate(432.2 68.5)"></rect></svg></svg>